# xmcd CD database file
#
# Track frame offsets:
#	183
#	21463
#	36483
#	85225
#	98510
#	118918
#	133738
#	150060
#	169930
#	200213
#	221448
#
# Disc length: 3163 seconds
#
# Revision: 0
# Processed by: cddbd v1.4PL0 Copyright (c) Steve Scherf et al.
# Submitted via: CDex 1.50beta10
#
DISCID=970c590b
DTITLE=Willie Kent and His Gents - The King Of West Side Blues - Chicago Blues Session, Vol. 21
DYEAR=1996
DGENRE=Blues
TTITLE0=One More Moment
TTITLE1=Me and My Baby
TTITLE2=Slow and Easy
TTITLE3=I'm Worried
TTITLE4=Don't Tell Me 'Bout Your Trouble
TTITLE5=Boogie Chillen
TTITLE6=Just Your Fool
TTITLE7=Somebody's Got to Go
TTITLE8=I've Got to Pay
TTITLE9=I Got to Go
TTITLE10=Bad Luck
EXTD=YEAR: 1996
EXTT0=
EXTT1=
EXTT2=
EXTT3=
EXTT4=
EXTT5=
EXTT6=
EXTT7=
EXTT8=
EXTT9=
EXTT10=
PLAYORDER=
